#!OML:ASF Y:\EmotionMaleHayes\Project 1\Capture day 1\Session 1\Male1.ASF
:FULLY-SPECIFIED
:DEGREES
1704
root 34.3318 17.1755 -19.6574 856.346 262.165 -143.314
lowerback 0.861549 0.251875 -20.4181
upperback 0.545216 -0.202519 -6.26314
thorax 0.0968331 -0.3044 4.62845
lowerneck -22.1122 10.3199 8.8891
upperneck 33.4877 14.1747 -7.31402
head 17.1939 5.63039 -1.75083
rclavicle 8.54774e-015 -1.20861e-013
rhumerus -58.8905 1.25428 -54.5281
rradius 41.606
rwrist -13.9837
rhand -11.9152 -36.8411
rfingers 7.12502
rthumb 14.1387 -66.34
lclavicle 8.54774e-015 -1.20861e-013
lhumerus -2.50718 -38.4998 88.6581
lradius 42.6331
lwrist -5.55074
lhand -13.4716 -27.7114
lfingers 7.12502
lthumb 12.6386 1.88623
rfemur -7.35336 -11.2943 8.79763
rtibia 13.829
rfoot -14.0298 -5.89444
rtoes 0.978091
lfemur 26.5197 1.67159 -29.8
ltibia -1.86358
lfoot -16.4702 8.23632
ltoes 3.68379
1705
root 34.2245 17.16 -19.6626 858.286 261.866 -145.178
lowerback 0.845479 0.16684 -20.6639
upperback 0.36764 -0.343395 -6.26994
thorax -0.0566738 -0.351078 4.75015
lowerneck -22.0519 10.382 8.96636
upperneck 33.6268 14.2488 -7.2946
head 17.2668 5.66737 -1.74197
rclavicle -3.18055e-015 -9.54166e-015
rhumerus -58.7591 0.982471 -54.5809
rradius 41.926
rwrist -14.3283
rhand -11.8183 -36.6582
rfingers 7.12502
rthumb 14.2321 -66.1506
lclavicle -3.18055e-015 -9.54166e-015
lhumerus -2.76051 -39.9635 89.4355
lradius 43.4278
lwrist -5.81193
lhand -12.7529 -28.211
lfingers 7.12502
lthumb 13.3314 1.34252
rfemur -7.66396 -10.8389 9.2017
rtibia 12.5062
rfoot -13.693 -5.74163
rtoes 1.29786
lfemur 26.7394 1.58825 -29.5958
ltibia -1.64929
lfoot -16.6012 7.89526
ltoes 2.87856
1706
root 34.1163 17.1447 -19.6646 858.239 261.633 -145.167
lowerback 1.26768 0.278073 -20.7122
upperback -0.0712794 -0.414009 -6.55845
thorax -0.773462 -0.309163 4.46996
lowerneck -21.7372 10.3787 9.35947
upperneck 33.8709 14.0937 -7.21289
head 17.3334 5.66668 -1.82307
rclavicle 1.90833e-014 1.90833e-014
rhumerus -59.2919 0.640217 -54.8156
rradius 42.4235
rwrist -14.7092
rhand -11.4194 -35.7638
rfingers 7.12502
rthumb 14.6164 -65.2288
lclavicle 1.90833e-014 1.90833e-014
lhumerus -3.74803 -41.6234 90.2629
lradius 44.4792
lwrist -6.41326
lhand -12.5487 -28.6153
lfingers 7.12502
lthumb 13.5282 0.925295
rfemur -8.00104 -10.587 9.39168
rtibia 11.5225
rfoot -13.8421 -5.08777
rtoes 4.03306
lfemur 27.1502 1.7358 -29.5493
ltibia -1.63949
lfoot -16.5263 7.62937
ltoes 0.674225
1707
root 34.0097 17.1236 -19.6646 858.676 261.553 -145.65
lowerback 0.949489 0.274191 -20.7546
upperback 0.0725525 -0.312754 -6.63796
thorax -0.456533 -0.297012 4.40255
lowerneck -21.6576 10.5041 9.78009
upperneck 33.4416 14.2745 -7.66967
head 17.2111 5.74812 -2.04462
rclavicle 1.59028e-014 -1.39944e-013
rhumerus -58.9337 0.238512 -55.1826
rradius 43.0064
rwrist -14.7415
rhand -11.6785 -35.8855
rfingers 7.12502
rthumb 14.3668 -65.3684
lclavicle 1.59028e-014 -1.39944e-013
lhumerus -3.25843 -43.1689 90.1723
lradius 45.4918
lwrist -6.92136
lhand -12.3968 -28.9735
lfingers 7.12502
lthumb 13.6746 0.557265
rfemur -8.42601 -10.4511 9.74472
rtibia 10.6901
rfoot -13.9936 -4.15166
rtoes 5.97162
lfemur 27.6144 1.61742 -29.5067
ltibia -1.71538
lfoot -16.7 7.56514
ltoes 0.327876
1708
root 33.8961 17.0943 -19.6575 857.876 261.501 -144.856
lowerback 0.753582 0.302771 -20.9478
upperback 0.0861092 -0.222824 -6.6246
thorax -0.350196 -0.263593 4.51429
lowerneck -21.9907 10.5251 9.56238
upperneck 33.3755 14.3646 -7.64675
head 17.241 5.75336 -1.96203
rclavicle 1.23246e-014 -1.55847e-013
rhumerus -58.4833 0.107046 -55.4058
rradius 43.4928
rwrist -14.9205
rhand -12.0036 -36.02
rfingers 7.12502
rthumb 14.0535 -65.5249
lclavicle 1.23246e-014 -1.55847e-013
lhumerus -2.87765 -44.5176 90.2577
lradius 46.4893
lwrist -7.39084
lhand -12.2624 -29.2377
lfingers 7.12502
lthumb 13.8041 0.284248
rfemur -8.97157 -10.3833 9.92964
rtibia 9.96592
rfoot -12.2831 -2.7867
rtoes 0.644084
lfemur 28.101 1.36288 -29.8326
ltibia -1.86303
lfoot -17.2029 7.69679
ltoes 1.56379
1709
root 33.7791 17.0664 -19.6552 856.352 261.098 -143.253
lowerback 0.429569 0.27102 -21.3999
upperback 0.102522 -0.19371 -6.79732
thorax -0.156728 -0.27498 4.55806
lowerneck -22.0407 10.6448 9.65249
upperneck 33.2694 14.4941 -7.61728
head 17.2188 5.82541 -1.92671
rclavicle 9.54166e-015 4.77083e-014
rhumerus -58.0932 -0.158278 -55.7683
rradius 43.9263
rwrist -14.9893
rhand -11.9912 -36.0441
rfingers 7.12502
rthumb 14.0655 -65.5482
lclavicle 9.54166e-015 4.77083e-014
lhumerus -2.55561 -45.9373 90.0849
lradius 47.624
lwrist -7.9675
lhand -12.1945 -29.4819
lfingers 7.12502
lthumb 13.8696 0.0356262
rfemur -9.52928 -10.5732 9.74227
rtibia 9.29965
rfoot -12.4196 -1.55341
rtoes -0.11279
lfemur 28.4537 1.41177 -30.253
ltibia -1.8708
lfoot -17.3901 7.45714
ltoes 1.17676
1710
root 33.6687 17.04 -19.6612 856.648 260.412 -143.318
lowerback 0.231485 0.131461 -22.0218
upperback 0.0652673 -0.3431 -6.89345
thorax -0.0504479 -0.360801 4.7709
lowerneck -22.2378 10.7008 9.48186
upperneck 33.3095 14.5784 -7.44689
head 17.2568 5.85558 -1.79514
rclavicle -1.27222e-014 5.40694e-014
rhumerus -57.8816 -0.299881 -56.0982
rradius 44.5844
rwrist -15.1909
rhand -12.2715 -37.1197
rfingers 7.12502
rthumb 13.7953 -66.6423
lclavicle -1.27222e-014 5.40694e-014
lhumerus -2.24205 -47.3272 89.9053
lradius 48.8487
lwrist -8.2536
lhand -12.2249 -29.6944
lfingers 7.12502
lthumb 13.8403 -0.174825
rfemur -10.0873 -10.8293 9.53099
rtibia 8.56783
rfoot -12.2531 -0.833189
rtoes -3.99592
lfemur 28.482 1.4481 -30.4259
ltibia -1.51568
lfoot -17.3311 6.79244
ltoes 0.583551
1711
root 33.5617 17.0013 -19.6484 855.931 259.935 -142.152
lowerback -0.156912 -0.0121608 -22.4628
upperback -0.145896 -0.464732 -6.93116
thorax -0.0338083 -0.412002 4.95243
lowerneck -21.8291 10.8149 9.47546
upperneck 33.0413 14.8277 -7.61223
head 17.0696 5.9538 -1.82174
rclavicle 1.27222e-014 -1.04958e-013
rhumerus -57.551 -0.27259 -56.2097
rradius 45.0521
rwrist -15.5287
rhand -11.3075 -34.6809
rfingers 7.12502
rthumb 14.7242 -64.1379
lclavicle 1.27222e-014 -1.04958e-013
lhumerus -2.15949 -48.3496 89.9959
lradius 50.0938
lwrist -8.34051
lhand -12.0986 -29.6118
lfingers 7.12502
lthumb 13.962 -0.100645
rfemur -11.1735 -11.4735 9.29029
rtibia 8.30638
rfoot -11.7533 0.556419
rtoes -5.58514
lfemur 28.3721 1.24531 -31.0635
ltibia -1.3451
lfoot -17.5621 6.63919
ltoes 0.872065
1712
root 33.4434 16.9752 -19.6471 855.342 259.603 -141.505
lowerback -0.329283 -0.0281059 -22.8439
upperback -0.172703 -0.448194 -6.98097
thorax 0.0299837 -0.412021 5.09017
lowerneck -21.71 10.8823 9.5454
upperneck 32.8263 14.9544 -7.7605
head 16.9719 6.00567 -1.86917
rclavicle -4.77083e-015 -7.95139e-014
rhumerus -57.8727 -0.0549176 -56.734
rradius 46.3084
rwrist -15.3507
rhand -11.4791 -34.8262
rfingers 7.12502
rthumb 14.559 -64.2953
lclavicle -4.77083e-015 -7.95139e-014
lhumerus -1.76997 -49.3444 89.7255
lradius 51.2345
lwrist -8.74988
lhand -11.3433 -29.6466
lfingers 7.12502
lthumb 14.6898 -0.186971
rfemur -11.7278 -12.2155 9.26926
rtibia 7.99192
rfoot -11.2172 2.04958
rtoes -5.71657
lfemur 28.8207 1.29529 -31.301
ltibia -1.46895
lfoot -17.7482 6.3641
ltoes 0.828708
